<svg width="19" height="18" viewBox="0 0 19 18" fill="none" xmlns="http://www.w3.org/2000/svg">
<path opacity="0.2" d="M16.7109 3.9375L9.96094 10.125L3.21094 3.9375H16.7109Z" fill="#6C727F"/>
<path fill-rule="evenodd" clip-rule="evenodd" d="M2.79629 3.55741C3.00621 3.3284 3.36203 3.31293 3.59104 3.52285L9.96094 9.36193L16.3308 3.52285C16.5599 3.31293 16.9157 3.3284 17.1256 3.55741C17.3355 3.78641 17.32 4.14223 17.091 4.35215L10.341 10.5397C10.126 10.7368 9.7959 10.7368 9.58085 10.5397L2.83085 4.35215C2.60184 4.14223 2.58637 3.78641 2.79629 3.55741Z" fill="currentColor"/>
<path fill-rule="evenodd" clip-rule="evenodd" d="M2.64844 3.9375C2.64844 3.62684 2.90028 3.375 3.21094 3.375H16.7109C17.0216 3.375 17.2734 3.62684 17.2734 3.9375V13.5C17.2734 13.7984 17.1549 14.0845 16.9439 14.2955C16.733 14.5065 16.4468 14.625 16.1484 14.625H3.77344C3.47507 14.625 3.18892 14.5065 2.97794 14.2955C2.76696 14.0845 2.64844 13.7984 2.64844 13.5V3.9375ZM3.77344 4.5V13.5H16.1484V4.5H3.77344Z" fill="currentColor"/>
<path fill-rule="evenodd" clip-rule="evenodd" d="M9.14503 8.61981C9.35501 8.84876 9.33962 9.20459 9.11067 9.41456L3.76692 14.3153C3.53796 14.5253 3.18214 14.5099 2.97216 14.281C2.76219 14.052 2.77757 13.6962 3.00653 13.4862L8.35028 8.58544C8.57923 8.37547 8.93506 8.39085 9.14503 8.61981Z" fill="currentColor"/>
<path fill-rule="evenodd" clip-rule="evenodd" d="M10.7769 8.61981C10.9868 8.39085 11.3426 8.37547 11.5716 8.58544L16.9154 13.4862C17.1443 13.6962 17.1597 14.052 16.9497 14.281C16.7397 14.5099 16.3839 14.5253 16.155 14.3153L10.8112 9.41456C10.5823 9.20459 10.5669 8.84876 10.7769 8.61981Z" fill="currentColor"/>
</svg>
