<svg width="305" height="42" viewBox="0 0 305 42" fill="none" xmlns="http://www.w3.org/2000/svg">
<path d="M62.6672 33.7977V31.2672C64.1131 33.6892 66.8604 34.2315 68.4149 34.2315C73.0419 34.2315 76.9822 30.2912 76.9822 24.5074C76.9822 18.9766 73.4396 14.7471 68.2341 14.7471C66.4628 14.7471 64.4385 15.3617 63.1732 17.2776V7.95111H56.8833V33.7977H62.6672ZM63.0287 24.4351C63.0287 21.8323 64.6915 20.2418 66.8966 20.2418C68.9571 20.2418 70.6561 21.8323 70.6561 24.4351C70.6561 27.0378 68.9571 28.7368 66.8966 28.7368C64.6915 28.7368 63.0287 27.074 63.0287 24.4351Z" fill="#170F49"/>
<path d="M92.7994 14.8917C92.5102 14.7833 92.1125 14.7471 91.6426 14.7471C89.1844 14.7471 87.377 16.0846 86.401 18.362V15.1809H80.1472V33.7977H86.4371V26.9655C86.4371 23.0614 88.2084 20.6394 91.3895 20.6394C92.0402 20.6394 92.5102 20.7117 92.7994 20.8563V14.8917Z" fill="#170F49"/>
<path d="M95.2211 33.7977H101.511V15.1809H95.2211V33.7977ZM94.968 9.97546C94.968 11.8552 96.414 13.2289 98.3299 13.2289C100.246 13.2289 101.728 11.8552 101.728 9.97546C101.728 8.09571 100.246 6.72205 98.3299 6.72205C96.414 6.72205 94.968 8.09571 94.968 9.97546Z" fill="#170F49"/>
<path d="M110.144 24.5797L103.745 33.7977H110.722L113.758 28.8814L116.795 33.7977H123.772L117.373 24.5797L123.916 15.1809H116.759L113.758 20.3502L110.758 15.1809H103.601L110.144 24.5797Z" fill="#170F49"/>
<path d="M131.163 18.832H133.549V26.2787C133.549 30.6166 136.007 33.0024 140.056 33.0024C141.899 33.0024 143.309 32.6048 144.285 32.1348V26.8209C143.526 27.3631 142.622 27.5077 141.863 27.5077C140.706 27.5077 139.839 26.8209 139.839 25.2304V18.832H143.779V13.9519H139.839V8.92714H133.73V13.9519H131.163V18.832Z" fill="#4A3AFF"/>
<path d="M163.622 24.7604C163.803 24.182 163.984 23.0614 163.984 22.0854C163.984 16.9884 160.369 13.5181 155.055 13.5181C149.56 13.5181 145.367 17.7836 145.367 23.2783C145.367 28.773 149.452 33.0024 155.814 33.0024C158.959 33.0024 161.417 32.2071 163.875 30.002L160.694 26.0256C159.791 26.8932 158.308 27.7608 156.284 27.7608C154.151 27.7608 152.127 26.8571 151.838 24.7604H163.622ZM154.91 18.5066C156.537 18.5066 157.802 19.5188 157.911 21.1094V21.1455H151.729C151.838 19.4465 153.284 18.5066 154.91 18.5066Z" fill="#4A3AFF"/>
<path d="M167.075 13.9519V32.5686H173.365V22.7722C173.365 20.4587 174.558 19.0127 176.33 19.0127C178.209 19.0127 179.222 20.1695 179.222 22.3384V32.5686H185.511V22.7722C185.511 20.4587 186.777 19.0127 188.476 19.0127C190.355 19.0127 191.368 20.1695 191.368 22.3384V32.5686H197.658V21.2178C197.658 16.41 194.983 13.5181 190.464 13.5181C187.319 13.5181 185.62 14.9279 184.355 16.5546C183.089 14.5664 181.065 13.5181 178.318 13.5181C176.113 13.5181 174.341 14.2772 173.076 16.1569V13.9519H167.075Z" fill="#4A3AFF"/>
<path d="M201.918 39.7984H208.208V30.7612C209.401 32.4963 211.498 33.0024 213.269 33.0024C218.475 33.0024 222.017 28.773 222.017 23.2422C222.017 17.4583 217.968 13.5181 213.341 13.5181C211.823 13.5181 209.257 14.0603 207.702 16.4823V13.9519H201.918V39.7984ZM208.064 23.3145C208.064 20.6756 209.727 19.0127 211.932 19.0127C213.992 19.0127 215.691 20.7117 215.691 23.3145C215.691 25.9172 213.992 27.5077 211.932 27.5077C209.727 27.5077 208.064 25.9172 208.064 23.3145Z" fill="#4A3AFF"/>
<path d="M224.965 27.0017C224.965 30.9057 227.207 33.0024 231.111 33.0024C232.376 33.0024 233.352 32.7855 234.039 32.4602V27.3993C233.569 27.58 233.135 27.6162 232.81 27.6162C231.364 27.6162 231.255 26.7125 231.255 25.8449V6.72205H224.965V27.0017Z" fill="#4A3AFF"/>
<path d="M241.815 33.0024C244.273 33.0024 245.9 31.9179 246.623 30.5081V32.5686H252.443V20.9286C252.443 16.3015 249.262 13.5181 243.876 13.5181C240.225 13.5181 237.224 15.1086 235.634 17.133L238.923 21.0732C239.899 19.9526 241.418 18.8681 243.55 18.8681C245.105 18.8681 246.442 19.4104 246.442 20.9648V21.0009L241.635 21.9408C237.73 22.7722 235.561 24.652 235.561 27.3993C235.561 30.6889 238.2 33.0024 241.815 33.0024ZM246.442 24.7966V25.0858C246.442 27.1462 245.286 28.4838 243.297 28.4838C242.177 28.4838 241.562 27.9054 241.562 27.0017C241.562 26.0979 242.285 25.628 243.406 25.3749L246.442 24.7966Z" fill="#4A3AFF"/>
<path d="M254.684 18.832H257.07V26.2787C257.07 30.6166 259.528 33.0024 263.577 33.0024C265.42 33.0024 266.83 32.6048 267.806 32.1348V26.8209C267.047 27.3631 266.143 27.5077 265.384 27.5077C264.227 27.5077 263.36 26.8209 263.36 25.2304V18.832H267.3V13.9519H263.36V8.92714H257.251V13.9519H254.684V18.832Z" fill="#4A3AFF"/>
<path d="M287.143 24.7604C287.324 24.182 287.505 23.0614 287.505 22.0854C287.505 16.9884 283.89 13.5181 278.576 13.5181C273.081 13.5181 268.888 17.7836 268.888 23.2783C268.888 28.773 272.973 33.0024 279.335 33.0024C282.48 33.0024 284.938 32.2071 287.396 30.002L284.215 26.0256C283.312 26.8932 281.829 27.7608 279.805 27.7608C277.672 27.7608 275.648 26.8571 275.359 24.7604H287.143ZM278.431 18.5066C280.058 18.5066 281.323 19.5188 281.432 21.1094V21.1455H275.25C275.359 19.4465 276.805 18.5066 278.431 18.5066Z" fill="#4A3AFF"/>
<path d="M297.031 33.0024C301.658 33.0024 304.767 30.4358 304.767 27.1101C304.767 23.4229 301.911 22.4469 298.983 21.2901C296.344 20.1695 295.223 19.9887 295.223 19.3019C295.223 18.6151 296.055 18.2174 297.031 18.2174C298.766 18.2174 299.742 19.0489 300.357 20.0972L304.261 17.2776C303.104 15.0725 300.393 13.5181 297.212 13.5181C293.018 13.5181 289.512 15.5424 289.512 19.2658C289.512 22.2661 291.572 23.7482 295.223 25.0496C297.79 25.9533 299.055 26.2787 299.055 27.2547C299.055 27.9415 298.368 28.303 297.103 28.303C295.223 28.303 293.778 27.1462 292.91 25.6641L288.897 28.7368C290.452 31.4841 293.561 33.0024 297.031 33.0024Z" fill="#4A3AFF"/>
<path fill-rule="evenodd" clip-rule="evenodd" d="M34.8602 12.4115C38.1018 12.4115 40.7297 9.78362 40.7297 6.54198C40.7297 3.30035 38.1018 0.672485 34.8602 0.672485C31.6185 0.672485 28.9907 3.30035 28.9907 6.54198C28.9907 9.78362 31.6185 12.4115 34.8602 12.4115Z" fill="#8055FA"/>
<path fill-rule="evenodd" clip-rule="evenodd" d="M34.86 26.4943C38.1016 26.4943 40.7295 23.8667 40.7295 20.6255C40.7295 17.3843 38.1016 14.7568 34.86 14.7568C31.6184 14.7568 28.9905 17.3843 28.9905 20.6255C28.9905 23.8667 31.6184 26.4943 34.86 26.4943Z" fill="#7550FB"/>
<path fill-rule="evenodd" clip-rule="evenodd" d="M34.86 41.1025C38.1016 41.1025 40.7295 38.4747 40.7295 35.233C40.7295 31.9914 38.1016 29.3635 34.86 29.3635C31.6184 29.3635 28.9905 31.9914 28.9905 35.233C28.9905 38.4747 31.6184 41.1025 34.86 41.1025Z" fill="#6A4AFC"/>
<path d="M20.2527 26.4941C23.4939 26.4941 26.1214 23.8666 26.1214 20.6254C26.1214 17.3842 23.4939 14.7567 20.2527 14.7567C17.0115 14.7567 14.384 17.3842 14.384 20.6254C14.384 23.8666 17.0115 26.4941 20.2527 26.4941Z" fill="#6045FD"/>
<path d="M20.2527 26.4941C23.4939 26.4941 26.1214 23.8666 26.1214 20.6254C26.1214 17.3842 23.4939 14.7567 20.2527 14.7567C17.0115 14.7567 14.384 17.3842 14.384 20.6254C14.384 23.8666 17.0115 26.4941 20.2527 26.4941Z" stroke="#A0A3BD"/>
<path fill-rule="evenodd" clip-rule="evenodd" d="M20.2521 41.1024C23.4933 41.1024 26.1208 38.4745 26.1208 35.2329C26.1208 31.9913 23.4933 29.3634 20.2521 29.3634C17.0109 29.3634 14.3834 31.9913 14.3834 35.2329C14.3834 38.4745 17.0109 41.1024 20.2521 41.1024Z" fill="#553FFE"/>
<path fill-rule="evenodd" clip-rule="evenodd" d="M6.16833 41.1024C9.40996 41.1024 12.0378 38.4745 12.0378 35.2329C12.0378 31.9913 9.40996 29.3634 6.16833 29.3634C2.92669 29.3634 0.298828 31.9913 0.298828 35.2329C0.298828 38.4745 2.92669 41.1024 6.16833 41.1024Z" fill="#4A3AFF"/>
</svg>
