<svg width="264" height="36" viewBox="0 0 264 36" fill="none" xmlns="http://www.w3.org/2000/svg">
<path d="M54.817 28.6957V26.5106C56.0656 28.602 58.438 29.0702 59.7802 29.0702C63.7758 29.0702 67.1782 25.6678 67.1782 20.6733C67.1782 15.8974 64.1191 12.2452 59.6241 12.2452C58.0946 12.2452 56.3465 12.7759 55.254 14.4303V6.37675H49.8225V28.6957H54.817ZM55.1291 20.6109C55.1291 18.3634 56.565 16.9899 58.4692 16.9899C60.2484 16.9899 61.7156 18.3634 61.7156 20.6109C61.7156 22.8584 60.2484 24.3255 58.4692 24.3255C56.565 24.3255 55.1291 22.8896 55.1291 20.6109Z" fill="#170F49"/>
<path d="M80.8366 12.3701C80.5869 12.2764 80.2435 12.2452 79.8377 12.2452C77.7151 12.2452 76.1543 13.4002 75.3115 15.3667V12.6198H69.9113V28.6957H75.3427V22.796C75.3427 19.4247 76.8723 17.3333 79.6192 17.3333C80.1811 17.3333 80.5869 17.3957 80.8366 17.5206V12.3701Z" fill="#170F49"/>
<path d="M82.9278 28.6957H88.3592V12.6198H82.9278V28.6957ZM82.7093 8.1248C82.7093 9.748 83.9579 10.9342 85.6123 10.9342C87.2667 10.9342 88.5465 9.748 88.5465 8.1248C88.5465 6.50161 87.2667 5.31543 85.6123 5.31543C83.9579 5.31543 82.7093 6.50161 82.7093 8.1248Z" fill="#170F49"/>
<path d="M95.8136 20.7358L90.2885 28.6957H96.313L98.9351 24.4504L101.557 28.6957H107.582L102.057 20.7358L107.707 12.6198H101.526L98.9351 17.0836L96.3442 12.6198H90.1636L95.8136 20.7358Z" fill="#170F49"/>
<path d="M113.964 15.7725H116.025V22.2029C116.025 25.9487 118.147 28.0089 121.643 28.0089C123.235 28.0089 124.453 27.6656 125.295 27.2598V22.6711C124.64 23.1393 123.86 23.2642 123.204 23.2642C122.205 23.2642 121.456 22.6711 121.456 21.2976V15.7725H124.858V11.5585H121.456V7.21956H116.181V11.5585H113.964V15.7725Z" fill="#4A3AFF"/>
<path d="M141.993 20.8918C142.15 20.3924 142.306 19.4247 142.306 18.5819C142.306 14.1806 139.184 11.1839 134.595 11.1839C129.851 11.1839 126.23 14.8673 126.23 19.612C126.23 24.3567 129.757 28.0089 135.251 28.0089C137.967 28.0089 140.089 27.3222 142.212 25.4181L139.465 21.9844C138.685 22.7335 137.405 23.4827 135.657 23.4827C133.815 23.4827 132.067 22.7023 131.817 20.8918H141.993ZM134.471 15.4916C135.875 15.4916 136.968 16.3656 137.061 17.7391V17.7703H131.724C131.817 16.3032 133.066 15.4916 134.471 15.4916Z" fill="#4A3AFF"/>
<path d="M144.975 11.5585V27.6343H150.407V19.175C150.407 17.1772 151.437 15.9286 152.966 15.9286C154.59 15.9286 155.464 16.9275 155.464 18.8004V27.6343H160.895V19.175C160.895 17.1772 161.988 15.9286 163.455 15.9286C165.078 15.9286 165.952 16.9275 165.952 18.8004V27.6343H171.383V17.8328C171.383 13.6811 169.073 11.1839 165.172 11.1839C162.456 11.1839 160.989 12.4013 159.896 13.806C158.804 12.0891 157.056 11.1839 154.683 11.1839C152.779 11.1839 151.249 11.8394 150.157 13.4626V11.5585H144.975Z" fill="#4A3AFF"/>
<path d="M175.063 33.8774H180.494V26.0736C181.524 27.5719 183.335 28.0089 184.864 28.0089C189.359 28.0089 192.418 24.3567 192.418 19.5808C192.418 14.5864 188.922 11.1839 184.927 11.1839C183.616 11.1839 181.399 11.6521 180.057 13.7436V11.5585H175.063V33.8774ZM180.369 19.6432C180.369 17.3645 181.805 15.9286 183.709 15.9286C185.488 15.9286 186.956 17.3957 186.956 19.6432C186.956 21.8907 185.488 23.2642 183.709 23.2642C181.805 23.2642 180.369 21.8907 180.369 19.6432Z" fill="#4A3AFF"/>
<path d="M194.964 22.8272C194.964 26.1984 196.899 28.0089 200.271 28.0089C201.363 28.0089 202.206 27.8216 202.799 27.5407V23.1706C202.393 23.3266 202.019 23.3579 201.738 23.3579C200.489 23.3579 200.395 22.5775 200.395 21.8283V5.31543H194.964V22.8272Z" fill="#4A3AFF"/>
<path d="M209.514 28.0089C211.637 28.0089 213.042 27.0725 213.666 25.8551V27.6343H218.692V17.583C218.692 13.5875 215.945 11.1839 211.294 11.1839C208.141 11.1839 205.55 12.5574 204.176 14.3054L207.017 17.7079C207.86 16.7402 209.171 15.8038 211.013 15.8038C212.355 15.8038 213.51 16.272 213.51 17.6142V17.6455L209.358 18.4571C205.987 19.175 204.114 20.7982 204.114 23.1706C204.114 26.0112 206.393 28.0089 209.514 28.0089ZM213.51 20.9231V21.1728C213.51 22.9521 212.511 24.107 210.794 24.107C209.826 24.107 209.296 23.6076 209.296 22.8272C209.296 22.0468 209.92 21.641 210.888 21.4225L213.51 20.9231Z" fill="#4A3AFF"/>
<path d="M220.627 15.7725H222.687V22.2029C222.687 25.9487 224.809 28.0089 228.306 28.0089C229.898 28.0089 231.115 27.6656 231.958 27.2598V22.6711C231.302 23.1393 230.522 23.2642 229.866 23.2642C228.867 23.2642 228.118 22.6711 228.118 21.2976V15.7725H231.521V11.5585H228.118V7.21956H222.843V11.5585H220.627V15.7725Z" fill="#4A3AFF"/>
<path d="M248.656 20.8918C248.812 20.3924 248.968 19.4247 248.968 18.5819C248.968 14.1806 245.846 11.1839 241.258 11.1839C236.513 11.1839 232.892 14.8673 232.892 19.612C232.892 24.3567 236.419 28.0089 241.913 28.0089C244.629 28.0089 246.752 27.3222 248.874 25.4181L246.127 21.9844C245.347 22.7335 244.067 23.4827 242.319 23.4827C240.477 23.4827 238.729 22.7023 238.48 20.8918H248.656ZM241.133 15.4916C242.538 15.4916 243.63 16.3656 243.724 17.7391V17.7703H238.386C238.48 16.3032 239.728 15.4916 241.133 15.4916Z" fill="#4A3AFF"/>
<path d="M257.194 28.0089C261.189 28.0089 263.874 25.7926 263.874 22.9208C263.874 19.7369 261.408 18.8941 258.879 17.8952C256.601 16.9275 255.633 16.7714 255.633 16.1783C255.633 15.5853 256.351 15.2419 257.194 15.2419C258.692 15.2419 259.535 15.9598 260.066 16.8651L263.437 14.4303C262.438 12.5262 260.097 11.1839 257.35 11.1839C253.729 11.1839 250.701 12.932 250.701 16.1471C250.701 18.738 252.48 20.0178 255.633 21.1416C257.849 21.922 258.942 22.2029 258.942 23.0457C258.942 23.6388 258.349 23.9509 257.256 23.9509C255.633 23.9509 254.384 22.9521 253.635 21.6722L250.17 24.3255C251.513 26.6979 254.197 28.0089 257.194 28.0089Z" fill="#4A3AFF"/>
<path fill-rule="evenodd" clip-rule="evenodd" d="M30.8052 10.2284C33.6044 10.2284 35.8736 7.95916 35.8736 5.15996C35.8736 2.36076 33.6044 0.0915527 30.8052 0.0915527C28.006 0.0915527 25.7368 2.36076 25.7368 5.15996C25.7368 7.95916 28.006 10.2284 30.8052 10.2284Z" fill="#8055FA"/>
<path fill-rule="evenodd" clip-rule="evenodd" d="M30.8051 22.3889C33.6043 22.3889 35.8735 20.12 35.8735 17.3211C35.8735 14.5223 33.6043 12.2534 30.8051 12.2534C28.0059 12.2534 25.7366 14.5223 25.7366 17.3211C25.7366 20.12 28.0059 22.3889 30.8051 22.3889Z" fill="#7550FB"/>
<path fill-rule="evenodd" clip-rule="evenodd" d="M30.8051 35.0035C33.6043 35.0035 35.8735 32.7343 35.8735 29.9351C35.8735 27.1359 33.6043 24.8667 30.8051 24.8667C28.0059 24.8667 25.7366 27.1359 25.7366 29.9351C25.7366 32.7343 28.0059 35.0035 30.8051 35.0035Z" fill="#6A4AFC"/>
<path d="M18.1915 22.3889C20.9904 22.3889 23.2593 20.12 23.2593 17.3211C23.2593 14.5223 20.9904 12.2534 18.1915 12.2534C15.3927 12.2534 13.1238 14.5223 13.1238 17.3211C13.1238 20.12 15.3927 22.3889 18.1915 22.3889Z" fill="#6045FD"/>
<path d="M18.1915 22.3889C20.9904 22.3889 23.2593 20.12 23.2593 17.3211C23.2593 14.5223 20.9904 12.2534 18.1915 12.2534C15.3927 12.2534 13.1238 14.5223 13.1238 17.3211C13.1238 20.12 15.3927 22.3889 18.1915 22.3889Z" stroke="#A0A3BD"/>
<path fill-rule="evenodd" clip-rule="evenodd" d="M18.1909 35.0035C20.9897 35.0035 23.2586 32.7343 23.2586 29.9351C23.2586 27.1359 20.9897 24.8667 18.1909 24.8667C15.3921 24.8667 13.1232 27.1359 13.1232 29.9351C13.1232 32.7343 15.3921 35.0035 18.1909 35.0035Z" fill="#553FFE"/>
<path fill-rule="evenodd" clip-rule="evenodd" d="M6.02934 35.0035C8.82855 35.0035 11.0977 32.7343 11.0977 29.9351C11.0977 27.1359 8.82855 24.8667 6.02934 24.8667C3.23014 24.8667 0.960938 27.1359 0.960938 29.9351C0.960938 32.7343 3.23014 35.0035 6.02934 35.0035Z" fill="#4A3AFF"/>
</svg>
