<svg width="19" height="18" viewBox="0 0 19 18" fill="none" xmlns="http://www.w3.org/2000/svg">
<path opacity="0.2" d="M9.96094 3.9375C4.33594 3.9375 2.08594 9 2.08594 9C2.08594 9 4.33594 14.0625 9.96094 14.0625C15.5859 14.0625 17.8359 9 17.8359 9C17.8359 9 15.5859 3.9375 9.96094 3.9375ZM9.96094 11.8125C9.40468 11.8125 8.86091 11.6476 8.3984 11.3385C7.93588 11.0295 7.5754 10.5902 7.36253 10.0763C7.14965 9.56238 7.09396 8.99688 7.20248 8.45131C7.311 7.90574 7.57886 7.4046 7.9722 7.01126C8.36553 6.61793 8.86667 6.35006 9.41225 6.24154C9.95782 6.13302 10.5233 6.18872 11.0372 6.40159C11.5512 6.61446 11.9904 6.97495 12.2994 7.43746C12.6085 7.89997 12.7734 8.44374 12.7734 9C12.7734 9.74592 12.4771 10.4613 11.9497 10.9887C11.4222 11.5162 10.7069 11.8125 9.96094 11.8125Z" fill="#6C727F"/>
<path fill-rule="evenodd" clip-rule="evenodd" d="M3.51631 6.071C4.85722 4.7301 6.96136 3.375 9.96094 3.375C12.9605 3.375 15.0647 4.7301 16.4056 6.071C17.0744 6.73983 17.5567 7.40768 17.8725 7.90928C18.0307 8.16051 18.1479 8.37132 18.2266 8.52147C18.2659 8.59658 18.2957 8.65664 18.3161 8.69912C18.3263 8.72037 18.3342 8.73724 18.3399 8.74941L18.3466 8.76411L18.3487 8.76875L18.3494 8.77038L18.3497 8.77102C18.3498 8.77129 18.35 8.77155 17.8359 9C18.35 9.22845 18.3498 9.22871 18.3497 9.22898L18.3494 9.22962L18.3487 9.23125L18.3466 9.23589L18.3399 9.25059C18.3342 9.26276 18.3263 9.27963 18.3161 9.30088C18.2957 9.34336 18.2659 9.40342 18.2266 9.47853C18.1479 9.62868 18.0307 9.83949 17.8725 10.0907C17.5567 10.5923 17.0744 11.2602 16.4056 11.929C15.0647 13.2699 12.9605 14.625 9.96094 14.625C6.96136 14.625 4.85722 13.2699 3.51631 11.929C2.84749 11.2602 2.3652 10.5923 2.04938 10.0907C1.8912 9.83949 1.77397 9.62868 1.69532 9.47853C1.65598 9.40342 1.62622 9.34336 1.60577 9.30088C1.59554 9.27963 1.58762 9.26276 1.582 9.25059L1.57526 9.23589L1.57317 9.23125L1.57244 9.22962L1.57215 9.22898C1.57203 9.22871 1.57192 9.22845 2.08594 9C1.57192 8.77155 1.57203 8.77129 1.57215 8.77102L1.57244 8.77038L1.57317 8.76875L1.57526 8.76411L1.582 8.74941C1.58762 8.73724 1.59554 8.72037 1.60577 8.69912C1.62622 8.65664 1.65598 8.59658 1.69532 8.52147C1.77397 8.37132 1.8912 8.16051 2.04938 7.90928C2.3652 7.40768 2.84749 6.73983 3.51631 6.071ZM2.08594 9L1.57192 8.77155C1.50728 8.91699 1.50728 9.08301 1.57192 9.22845L2.08594 9ZM2.71488 9C2.78105 9.12396 2.87608 9.29228 3.0014 9.49131C3.28323 9.93893 3.71501 10.5367 4.31181 11.1335C5.50216 12.3239 7.33551 13.5 9.96094 13.5C12.5864 13.5 14.4197 12.3239 15.6101 11.1335C16.2069 10.5367 16.6386 9.93893 16.9205 9.49131C17.0458 9.29228 17.1408 9.12396 17.207 9C17.1408 8.87604 17.0458 8.70772 16.9205 8.50869C16.6386 8.06107 16.2069 7.4633 15.6101 6.8665C14.4197 5.67615 12.5864 4.5 9.96094 4.5C7.33551 4.5 5.50216 5.67615 4.31181 6.8665C3.71501 7.4633 3.28323 8.06107 3.0014 8.50869C2.87608 8.70772 2.78105 8.87604 2.71488 9ZM17.8359 9L18.35 9.22845C18.4146 9.08301 18.4146 8.91699 18.35 8.77155L17.8359 9Z" fill="#6C727F"/>
<path fill-rule="evenodd" clip-rule="evenodd" d="M9.96094 6.75C8.7183 6.75 7.71094 7.75736 7.71094 9C7.71094 10.2426 8.7183 11.25 9.96094 11.25C11.2036 11.25 12.2109 10.2426 12.2109 9C12.2109 7.75736 11.2036 6.75 9.96094 6.75ZM6.58594 9C6.58594 7.13604 8.09698 5.625 9.96094 5.625C11.8249 5.625 13.3359 7.13604 13.3359 9C13.3359 10.864 11.8249 12.375 9.96094 12.375C8.09698 12.375 6.58594 10.864 6.58594 9Z" fill="currentColor"/>
</svg>
